<svg width="211" height="59" viewBox="0 0 211 59" fill="none" xmlns="http://www.w3.org/2000/svg">
<path d="M6.82581 13.0153C10.6888 13.0153 13.6141 10.2022 13.6141 6.52638C13.6141 2.8131 10.6888 0 6.82581 0C2.96285 0 0 2.8131 0 6.52638C0 10.2022 2.96285 13.0153 6.82581 13.0153ZM6.82581 58.8875C10.9888 58.8875 13.4641 56.3744 13.4641 51.986V23.2174C13.4641 18.8665 10.9888 16.316 6.82581 16.316C2.62531 16.316 0.187522 18.8665 0.187522 23.2174V51.986C0.187522 56.3744 2.62531 58.8875 6.82581 58.8875Z" fill="#3F3F3F"/>
<path d="M26.6282 58.8875C30.4911 58.8875 33.2664 56.637 33.2664 51.986V34.9199C33.2664 30.4189 35.8918 27.2308 40.1298 27.2308C44.4803 27.2308 46.693 30.0064 46.693 34.6573V51.986C46.693 56.637 49.4309 58.8875 53.3313 58.8875C57.2318 58.8875 59.9696 56.637 59.9696 51.986V31.8067C59.9696 22.0922 54.9065 16.391 45.7929 16.391C39.5297 16.391 35.5542 19.1666 33.4165 24.5677H33.1539V23.0299C33.1539 18.7915 30.4911 16.316 26.4031 16.316C22.3151 16.316 19.9524 18.7915 19.9524 22.9924V51.986C19.9524 56.637 22.7277 58.8875 26.6282 58.8875Z" fill="#3F3F3F"/>
<path d="M69.5707 47.0725C69.5707 54.6491 73.5837 58.5499 81.4597 58.5499H81.7972C86.9353 58.5499 91.1358 56.5995 91.1358 52.7362C91.1358 49.6605 89.4106 48.3477 86.4477 48.0102L85.6227 47.8976C83.7474 47.7101 82.8848 46.6974 82.8848 44.1469V27.0057H86.1102C89.0731 27.0057 91.0233 25.0553 91.0233 22.0922C91.0233 19.1291 89.0731 17.1786 86.1102 17.1786H82.8848V13.9154C82.8848 9.60203 80.447 7.01399 76.2465 7.01399C72.0085 7.01399 69.5707 9.60203 69.5707 13.9154V17.1786H68.1081C65.1452 17.1786 63.195 19.0915 63.195 22.0922C63.195 25.0553 65.1452 27.0057 68.1081 27.0057H69.5707V47.0725Z" fill="#3F3F3F"/>
<path d="M115.026 59C123.165 59 129.765 56.1119 132.466 51.3109C133.066 50.3357 133.366 49.323 133.366 48.3102C133.366 45.3846 131.078 43.6592 128.378 43.6592C126.728 43.6592 125.64 44.1093 124.252 45.4221C121.289 48.4228 118.777 49.5855 115.139 49.5855C110.338 49.5855 107.075 46.2098 107.075 41.2587V40.5086H129.278C132.728 40.5086 134.641 38.6332 134.641 35.2575C134.641 24.2301 126.653 16.2034 114.501 16.2034C102.05 16.2034 94.1737 24.5677 94.1737 37.808C94.1737 51.0858 101.937 59 115.026 59ZM107.263 32.932C107.6 28.6561 110.638 25.6554 114.764 25.6554C118.927 25.6554 121.889 28.506 122.114 32.932H107.263Z" fill="#3F3F3F"/>
<path d="M146.492 58.8875C150.355 58.8875 153.131 56.637 153.131 51.986V34.9199C153.131 30.4189 155.756 27.2308 159.994 27.2308C164.344 27.2308 166.557 30.0064 166.557 34.6573V51.986C166.557 56.637 169.295 58.8875 173.196 58.8875C177.096 58.8875 179.834 56.637 179.834 51.986V31.8067C179.834 22.0922 174.771 16.391 165.657 16.391C159.394 16.391 155.418 19.1666 153.281 24.5677H153.018V23.0299C153.018 18.7915 150.355 16.316 146.267 16.316C142.179 16.316 139.817 18.7915 139.817 22.9924V51.986C139.817 56.637 142.592 58.8875 146.492 58.8875Z" fill="#3F3F3F"/>
<path d="M189.435 47.0725C189.435 54.6491 193.448 58.5499 201.324 58.5499H201.661C206.8 58.5499 211 56.5995 211 52.7362C211 49.6605 209.275 48.3477 206.312 48.0102L205.487 47.8976C203.612 47.7101 202.749 46.6974 202.749 44.1469V27.0057H205.974C208.937 27.0057 210.887 25.0553 210.887 22.0922C210.887 19.1291 208.937 17.1786 205.974 17.1786H202.749V13.9154C202.749 9.60203 200.311 7.01399 196.111 7.01399C191.873 7.01399 189.435 9.60203 189.435 13.9154V17.1786H187.972C185.009 17.1786 183.059 19.0915 183.059 22.0922C183.059 25.0553 185.009 27.0057 187.972 27.0057H189.435V47.0725Z" fill="#3F3F3F"/>
</svg>
