<svg width="177" height="177" viewBox="0 0 177 177" fill="none" xmlns="http://www.w3.org/2000/svg">
<path d="M176.179 91.4445C175.33 113.933 166.126 134.133 151.668 149.172L122.291 118.925C129.467 111.157 134.012 100.886 134.442 89.4892C135.368 64.9616 116.896 44.199 92.7395 41.9904L94.5452 0.234741C141.68 3.65017 177.975 43.8504 176.179 91.4445Z" fill="#F88B7B"/>
<path d="M147.308 153.406C131.708 167.551 111.059 176.149 88.5493 176.242L90.5898 133.671C100.906 133.216 110.391 129.337 117.883 123.109L147.308 153.406Z" fill="#E7AD3A"/>
<path d="M57.3693 121.553C64.6155 128.238 74.0342 132.634 84.5118 133.542L82.4736 176.061C60.6367 174.669 41.0825 165.387 26.5012 151.115L57.3693 121.553Z" fill="#FAF077"/>
<path d="M53.1827 117.148C46.4332 109.04 42.4362 98.5943 42.5582 87.2838L0.115001 83.6412C0.0955048 84.0264 0.0784656 84.4123 0.0638833 84.7982C-0.829607 108.474 7.70275 130.32 22.3063 146.718L53.1827 117.148Z" fill="#5BD592"/>
<path d="M54.5078 56.8396C48.4802 63.4631 44.3504 71.8696 43.0189 81.224L0.62854 77.586C3.03293 57.4307 12.1936 39.4639 25.7134 25.9083L54.5078 56.8396Z" fill="#70ACF7"/>
<path d="M58.8854 52.623C62.1427 49.8742 65.784 47.5727 69.7121 45.8083L55.815 6.11304C46.3645 9.84176 37.6949 15.1619 30.1499 21.7549L58.8854 52.623Z" fill="#8B7BC0"/>
<path d="M86.6639 41.832C82.7752 41.9845 79.0035 42.6237 75.41 43.6919L61.5421 4.08006C70.0519 1.38836 79.1045 -0.0420297 88.4726 0.000940576L86.6639 41.832Z" fill="#272F50"/>
<path d="M88.1098 121.688C89.39 121.688 90.3689 120.784 90.3689 119.428V114.609C99.2545 113.931 106.634 108.999 106.634 99.9253C106.634 92.0186 101.212 88.0277 91.5361 85.6933L90.3689 85.4297V68.2986C94.8493 68.901 97.7485 71.3483 99.4051 75.7158C99.9322 77.3348 100.986 78.389 102.756 78.389C104.563 78.389 105.843 77.1466 105.843 75.3393C105.843 74.7746 105.768 74.2098 105.617 73.645C103.886 67.2444 97.8614 63.0652 90.3689 62.3874V57.5681C90.3689 56.2127 89.39 55.3091 88.1098 55.3091C86.8297 55.3091 85.8508 56.2127 85.8508 57.5681V62.4251C76.9275 63.2158 70.5645 68.5622 70.5645 76.6571C70.5645 84.0743 75.6098 88.2536 84.9848 90.5126L85.8508 90.7385V108.698C80.0902 108.058 77.2287 105.121 75.9863 101.243C75.3462 99.3606 74.179 98.5699 72.6353 98.5699C70.8281 98.5699 69.548 99.8124 69.548 101.62C69.548 102.184 69.6233 102.749 69.7739 103.314C71.5435 109.978 78.17 113.894 85.8508 114.571V119.428C85.8508 120.784 86.8297 121.688 88.1098 121.688ZM77.1158 76.2053C77.1158 72.5532 80.1279 69.0893 85.8508 68.3363V84.3379C79.3748 82.7565 77.1158 79.8951 77.1158 76.2053ZM90.5948 91.868C98.0497 93.6753 100.083 96.3108 100.083 100.452C100.083 104.782 97.3719 108.209 90.3689 108.736V91.8304L90.5948 91.868Z" fill="#3F3F3F"/>
</svg>
