<svg width="173" height="44" viewBox="0 0 173 44" fill="none" xmlns="http://www.w3.org/2000/svg">
<path d="M2.63775 32.7187C4.24465 32.7187 5.2755 31.5024 5.2755 29.8908V12.3455C5.2755 7.96683 8.30739 4.68279 12.4914 4.68279C16.4026 4.68279 18.9494 7.17623 18.9494 10.9772V29.8908C18.9494 31.5024 19.9802 32.7187 21.5871 32.7187C23.194 32.7187 24.2248 31.5024 24.2248 29.8908V12.0719C24.2248 7.78438 27.1658 4.68279 31.3498 4.68279C35.5035 4.68279 37.8987 7.23704 37.8987 11.5549V29.8908C37.8987 31.5024 38.9295 32.7187 40.5365 32.7187C42.1434 32.7187 43.1742 31.5024 43.1742 29.8908V10.3386C43.1742 4.07464 39.1418 0 32.8961 0C28.4695 0 24.7706 2.25017 23.0121 6.02073H22.8908C21.5265 2.18936 18.343 0 14.0377 0C9.79302 0 6.57921 2.25017 5.09359 5.59502H4.97231V2.67588C4.97231 1.09468 3.94146 0 2.48615 0C1.03084 0 0 1.09468 0 2.67588V29.8908C0 31.5024 1.03084 32.7187 2.63775 32.7187Z" fill="#5BD592"/>
<path d="M62.9725 32.7187C71.674 32.7187 77.5559 26.4243 77.5559 16.3594C77.5559 6.26399 71.674 0 62.9725 0C54.2406 0 48.3587 6.26399 48.3587 16.3594C48.3587 26.4243 54.2406 32.7187 62.9725 32.7187ZM62.9725 28.0663C57.3938 28.0663 53.7252 23.8093 53.7252 16.3594C53.7252 8.90947 57.3938 4.65238 62.9725 4.65238C68.5512 4.65238 72.1894 8.90947 72.1894 16.3594C72.1894 23.8093 68.5512 28.0663 62.9725 28.0663Z" fill="#5BD592"/>
<path d="M85.5298 32.7187C87.0761 32.7187 88.1675 31.5632 88.1675 29.8908V13.5619C88.1675 8.21009 91.4117 4.68279 96.384 4.68279C101.235 4.68279 103.63 7.4803 103.63 12.5888V29.8908C103.63 31.5632 104.722 32.7187 106.268 32.7187C107.814 32.7187 108.906 31.5632 108.906 29.8908V11.6462C108.906 4.46994 104.904 0 97.9909 0C93.1095 0 89.7441 2.18936 87.9856 5.59502H87.8644V2.67588C87.8644 1.09468 86.8335 0 85.3782 0C83.9229 0 82.892 1.09468 82.892 2.67588V29.8908C82.892 31.5632 83.9835 32.7187 85.5298 32.7187Z" fill="#5BD592"/>
<path d="M128.856 32.7187C134.616 32.7187 139.043 30.2861 141.074 25.9986C141.317 25.4209 141.468 24.8735 141.468 24.4478C141.468 23.0491 140.528 22.1368 139.134 22.1368C138.315 22.1368 137.709 22.4409 137.163 23.2011C134.707 26.7892 132.403 28.1272 128.643 28.1272C123.004 28.1272 119.517 24.1742 119.517 17.7885H139.225C141.044 17.7885 142.135 16.633 142.135 14.7173C142.135 6.05114 136.466 0 128.401 0C119.699 0 114.09 6.50726 114.09 16.481C114.09 26.698 119.548 32.7187 128.856 32.7187ZM119.548 13.6531C119.881 8.21009 123.398 4.59157 128.31 4.59157C133.191 4.59157 136.557 8.17968 136.678 13.6531H119.548Z" fill="#5BD592"/>
<path d="M150.564 44C155.779 44 158.356 41.6586 161.085 34.3912L172.727 3.83138C172.909 3.31444 173 2.82792 173 2.43262C173 1.00346 171.939 0 170.423 0C169.119 0 168.422 0.547339 167.937 1.9461L159.205 26.8804H159.114L150.412 1.9461C149.927 0.547339 149.139 0 147.896 0C146.38 0 145.258 0.973048 145.258 2.43262C145.258 2.82792 145.349 3.31444 145.531 3.83138L156.385 32.2018L155.658 34.4216C154.414 38.2529 152.504 39.4692 150.503 39.4692C149.685 39.4692 149.472 39.4388 148.715 39.4388C147.38 39.4388 146.592 40.2294 146.592 41.3849C146.592 43.0574 148.017 44 150.564 44Z" fill="#5BD592"/>
</svg>
